<svg width="30" height="30" viewBox="0 0 30 30" fill="none" xmlns="http://www.w3.org/2000/svg">
<circle cx="15" cy="15" r="15" fill="url(#paint0_linear_5609_16023)"/>
<path fill-rule="evenodd" clip-rule="evenodd" d="M8.5776 12.575C8.43332 12.5141 8.34009 12.3766 8.34009 12.2246V7.51143C8.34009 7.30017 8.51755 7.12891 8.73649 7.12891H12.1717C12.3907 7.12891 12.5681 7.30017 12.5681 7.51143V13.3503C12.5681 13.499 12.6574 13.6342 12.797 13.697L15.0997 14.7333C15.2059 14.7811 15.3285 14.7811 15.4347 14.7333L17.9362 13.6075C18.076 13.5447 18.1651 13.4095 18.1651 13.2609V7.53639C18.1651 7.32513 18.3424 7.15387 18.5613 7.15387H21.9968C22.2158 7.15387 22.3931 7.32513 22.3931 7.53639V12.2495C22.3931 12.4015 22.2997 12.5391 22.1556 12.6L21.5167 12.8698L17.0328 14.9113C16.729 15.0496 16.73 15.4669 17.0344 15.6039L18.0191 16.047C18.0257 16.05 18.0333 16.0453 18.0333 16.0382C18.0328 16.0313 18.0404 16.0265 18.0471 16.0292L22.1514 17.7097C22.2978 17.7696 22.3931 17.9083 22.3931 18.0618V22.7719C22.3931 22.9832 22.2158 23.1544 21.9968 23.1544H18.5542C18.3381 23.1544 18.1618 22.9873 18.158 22.7787L18.0532 17.1333C18.0509 16.9883 17.9632 16.8573 17.8276 16.7948L15.5442 15.7443C15.4367 15.6949 15.312 15.6947 15.2044 15.7437L12.7954 16.8406C12.6566 16.9037 12.5681 17.0385 12.5681 17.1865V22.7719C12.5681 22.9832 12.3907 23.1544 12.1717 23.1544H8.73649C8.51755 23.1544 8.34009 22.9832 8.34009 22.7719V18.0588C8.34009 17.9068 8.43332 17.7692 8.5776 17.7083L12.561 16.0265L13.617 15.5512C13.9208 15.4145 13.9226 14.9984 13.6201 14.8592L9.51454 12.9706L8.5776 12.575Z" fill="#F489CF"/>
<path d="M8.76453 23.1542L8.45593 22.8271L12.0036 22.8533L12.2875 23.1542H8.76453Z" fill="#804A7E"/>
<path d="M18.5052 23.1542L18.1782 22.8271L21.9376 22.8533L22.2385 23.1542H18.5052Z" fill="#804A7E"/>
<path d="M12.7065 16.912L12.456 16.6617L15.1423 15.248L15.6067 15.561L12.7065 16.912Z" fill="#804A7E"/>
<path d="M22.3903 12.4933L16.7062 15.0592L16.1966 14.8087L21.8798 11.9326L22.3903 12.4933Z" fill="#804A7E"/>
<path fill-rule="evenodd" clip-rule="evenodd" d="M8.5753 12.3735C8.43242 12.3127 8.34009 12.1753 8.34009 12.0235V7.31659C8.34009 7.10561 8.51583 6.93457 8.73265 6.93457H12.1346C12.3514 6.93457 12.5272 7.10561 12.5272 7.31659V13.1478C12.5272 13.2962 12.6156 13.4312 12.7538 13.494L15.0342 14.5289C15.1393 14.5766 15.2608 14.5766 15.3659 14.5289L17.8431 13.4046C17.9816 13.3419 18.0699 13.2069 18.0699 13.0584V7.34151C18.0699 7.13053 18.2454 6.9595 18.4623 6.9595H21.8645C22.0813 6.9595 22.2569 7.13053 22.2569 7.34152V12.0484C22.2569 12.2002 22.1644 12.3376 22.0217 12.3984L21.389 12.6679L16.9485 14.7067C16.6477 14.8448 16.6487 15.2616 16.9501 15.3984L17.9253 15.8409C17.9319 15.8439 17.9394 15.8392 17.9394 15.8321C17.9389 15.8252 17.9464 15.8204 17.953 15.8231L22.0175 17.5013C22.1625 17.5612 22.2569 17.6997 22.2569 17.8531V22.5569C22.2569 22.7679 22.0813 22.9389 21.8645 22.9389H18.4552C18.2412 22.9389 18.0666 22.772 18.0628 22.5637L17.9591 16.9258C17.9567 16.7809 17.8699 16.6501 17.7357 16.5877L15.4743 15.5386C15.368 15.4893 15.2445 15.4891 15.1379 15.538L12.7522 16.6334C12.6148 16.6965 12.5272 16.8311 12.5272 16.9789V22.5569C12.5272 22.7679 12.3514 22.9389 12.1346 22.9389H8.73265C8.51583 22.9389 8.34009 22.7679 8.34009 22.5569V17.85C8.34009 17.6982 8.43242 17.5608 8.5753 17.5L12.5201 15.8204L13.5659 15.3458C13.8667 15.2093 13.8685 14.7937 13.5689 14.6547L9.50316 12.7686L8.5753 12.3735Z" fill="#4B1A3A"/>
<defs>
<linearGradient id="paint0_linear_5609_16023" x1="23.2388" y1="2.73993" x2="6.31624" y2="27.3677" gradientUnits="userSpaceOnUse">
<stop stop-color="#DB6E8B"/>
<stop offset="1" stop-color="#C6527E"/>
</linearGradient>
</defs>
</svg>
